<?xml version="1.0" encoding="UTF-8" standalone="no"?>
<svg
   xmlns:dc="http://purl.org/dc/elements/1.1/"
   xmlns:cc="http://creativecommons.org/ns#"
   xmlns:rdf="http://www.w3.org/1999/02/22-rdf-syntax-ns#"
   xmlns:svg="http://www.w3.org/2000/svg"
   xmlns="http://www.w3.org/2000/svg"
   xmlns:sodipodi="http://sodipodi.sourceforge.net/DTD/sodipodi-0.dtd"
   xmlns:inkscape="http://www.inkscape.org/namespaces/inkscape"
   version="1.1"
   width="210mm"
   height="297mm"
   viewBox="0 0 82677.015 116928.92"
   id="svg2"
   inkscape:version="0.91 r13725"
   sodipodi:docname="board.svg">
  <metadata
     id="metadata406">
    <rdf:RDF>
      <cc:Work
         rdf:about="">
        <dc:format>image/svg+xml</dc:format>
        <dc:type
           rdf:resource="http://purl.org/dc/dcmitype/StillImage" />
        <dc:title>SVG Picture created as cf2-hcsr04-B_Cu.svg date 2015/02/13 13:18:48 </dc:title>
      </cc:Work>
    </rdf:RDF>
  </metadata>
  <defs
     id="defs404" />
  <sodipodi:namedview
     pagecolor="#ffffff"
     bordercolor="#666666"
     borderopacity="1"
     objecttolerance="10"
     gridtolerance="10"
     guidetolerance="10"
     inkscape:pageopacity="0"
     inkscape:pageshadow="2"
     inkscape:window-width="1920"
     inkscape:window-height="1065"
     id="namedview402"
     showgrid="false"
     units="mm"
     inkscape:zoom="0.59098884"
     inkscape:cx="206.43368"
     inkscape:cy="402.71488"
     inkscape:window-x="1920"
     inkscape:window-y="15"
     inkscape:window-maximized="0"
     inkscape:current-layer="svg2" />
  <title
     id="title4">SVG Picture created as cf2-hcsr04-B_Cu.svg date 2015/02/13 13:18:48 </title>
  <desc
     id="desc6">Picture generated by PCBNEW </desc>
  <g
     style="fill:#000000;fill-opacity:1;stroke:#000000;stroke-linecap:round;stroke-linejoin:round;stroke-opacity:1"
     id="g8"
     transform="translate(25757.161,75003.031)" />
  <g
     style="fill:#000000;fill-opacity:0;stroke:#000000;stroke-width:98.42520142;stroke-linecap:round;stroke-linejoin:round;stroke-opacity:1"
     id="g10"
     transform="translate(15792.712,-9036.7569)">
    <path
       d="m 24731,25636 38,19 75,0 37,-19 19,-19 19,-37 0,-113 -19,-37 -19,-19 -37,-19 -75,0 -38,19"
       id="path12"
       inkscape:connector-curvature="0" />
    <path
       d="m 24506,25655 38,-19 19,-19 18,-37 0,-113 -18,-37 -19,-19 -38,-19 -56,0 -37,19 -19,19 -19,37 0,113 19,37 19,19 37,19 56,0"
       id="path14"
       inkscape:connector-curvature="0" />
    <path
       d="m 24206,25655 0,-263"
       id="path16"
       inkscape:connector-curvature="0" />
    <path
       d="m 24206,25467 -18,-37 -19,-19 -38,-19 -37,0"
       id="path18"
       inkscape:connector-curvature="0" />
    <path
       d="m 23813,25636 37,19 75,0 38,-19 18,-38 0,-150 -18,-37 -38,-19 -75,0 -37,19 -19,37 0,38 187,37"
       id="path20"
       inkscape:connector-curvature="0" />
    <path
       d="m 23457,25655 0,-394"
       id="path22"
       inkscape:connector-curvature="0" />
    <path
       d="m 23457,25636 37,19 75,0 37,-19 19,-19 19,-37 0,-113 -19,-37 -19,-19 -37,-19 -75,0 -37,19"
       id="path24"
       inkscape:connector-curvature="0" />
    <path
       d="m 23100,25392 0,263"
       id="path26"
       inkscape:connector-curvature="0" />
    <path
       d="m 23269,25392 0,206 -19,38 -37,19 -56,0 -38,-19 -19,-19"
       id="path28"
       inkscape:connector-curvature="0" />
    <path
       d="m 22913,25655 0,-263"
       id="path30"
       inkscape:connector-curvature="0" />
    <path
       d="m 22913,25430 -19,-19 -37,-19 -57,0 -37,19 -19,37 0,207"
       id="path32"
       inkscape:connector-curvature="0" />
    <path
       d="m 22744,25448 -19,-37 -37,-19 -56,0 -38,19 -19,37 0,207"
       id="path34"
       inkscape:connector-curvature="0" />
    <path
       d="m 22388,25392 0,394"
       id="path36"
       inkscape:connector-curvature="0" />
    <path
       d="m 22388,25411 -38,-19 -75,0 -37,19 -19,19 -19,37 0,113 19,37 19,19 37,19 75,0 38,-19"
       id="path38"
       inkscape:connector-curvature="0" />
    <path
       d="m 21750,25298 -18,-18 -38,-19 -94,0 -37,19 -19,18 -18,38 0,37 18,57 225,225 -243,0"
       id="path40"
       inkscape:connector-curvature="0" />
    <path
       d="m 21282,25261 -38,0 -37,19 -19,18 -19,38 -18,75 0,94 18,75 19,37 19,19 37,19 38,0 37,-19 19,-19 19,-37 19,-75 0,-94 -19,-75 -19,-38 -19,-18 -37,-19"
       id="path42"
       inkscape:connector-curvature="0" />
    <path
       d="m 20776,25655 225,0"
       id="path44"
       inkscape:connector-curvature="0" />
    <path
       d="m 20888,25655 0,-394 38,56 37,38 38,18"
       id="path46"
       inkscape:connector-curvature="0" />
    <path
       d="m 20419,25261 188,0 19,187 -19,-18 -38,-19 -93,0 -38,19 -19,18 -18,38 0,94 18,37 19,19 38,19 93,0 38,-19 19,-19"
       id="path48"
       inkscape:connector-curvature="0" />
    <path
       d="m 21094,20417 19,19 56,19 38,0 56,-19 37,-38 19,-37 19,-75 0,-56 -19,-75 -19,-38 -37,-37 -56,-19 -38,0 -56,19 -19,18"
       id="path50"
       inkscape:connector-curvature="0" />
    <path
       d="m 20794,20248 131,0"
       id="path52"
       inkscape:connector-curvature="0" />
    <path
       d="m 20925,20455 0,-394 -187,0"
       id="path54"
       inkscape:connector-curvature="0" />
    <path
       d="m 20607,20098 -19,-18 -38,-19 -93,0 -38,19 -19,18 -18,38 0,37 18,57 225,225 -243,0"
       id="path56"
       inkscape:connector-curvature="0" />
    <path
       d="m 22266,20710 0,319 -19,38 -19,18 -37,19 -75,0 -38,-19 -18,-18 -19,-38 0,-319"
       id="path58"
       inkscape:connector-curvature="0" />
    <path
       d="m 21797,21104 38,-19 18,-37 0,-338"
       id="path60"
       inkscape:connector-curvature="0" />
    <path
       d="m 21703,20842 -150,0"
       id="path62"
       inkscape:connector-curvature="0" />
    <path
       d="m 21647,20710 0,338 -19,37 -37,19 -38,0"
       id="path64"
       inkscape:connector-curvature="0" />
    <path
       d="m 21422,21104 0,-262"
       id="path66"
       inkscape:connector-curvature="0" />
    <path
       d="m 21422,20917 -19,-38 -18,-19 -38,-18 -37,0"
       id="path68"
       inkscape:connector-curvature="0" />
    <path
       d="m 21010,21104 0,-206 18,-38 38,-18 75,0 37,18"
       id="path70"
       inkscape:connector-curvature="0" />
    <path
       d="m 21010,21085 37,19 94,0 37,-19 19,-37 0,-38 -19,-37 -37,-19 -94,0 -37,-19"
       id="path72"
       inkscape:connector-curvature="0" />
    <path
       d="m 20841,21085 -38,19 -74,0 -38,-19 -19,-37 0,-19 19,-37 38,-19 56,0 37,-19 19,-37 0,-19 -19,-38 -37,-18 -56,0 -38,18"
       id="path74"
       inkscape:connector-curvature="0" />
    <path
       d="m 20447,21104 38,-19 19,-18 18,-38 0,-112 -18,-38 -19,-19 -38,-18 -56,0 -37,18 -19,19 -19,38 0,112 19,38 19,18 37,19 56,0"
       id="path76"
       inkscape:connector-curvature="0" />
    <path
       d="m 20147,20842 0,262"
       id="path78"
       inkscape:connector-curvature="0" />
    <path
       d="m 20147,20879 -18,-19 -38,-18 -56,0 -38,18 -18,38 0,206"
       id="path80"
       inkscape:connector-curvature="0" />
    <path
       d="m 19791,21104 0,-262"
       id="path82"
       inkscape:connector-curvature="0" />
    <path
       d="m 19791,20710 19,19 -19,19 -19,-19 19,-19 0,38"
       id="path84"
       inkscape:connector-curvature="0" />
    <path
       d="m 19435,21085 37,19 75,0 38,-19 19,-18 18,-38 0,-112 -18,-38 -19,-19 -38,-18 -75,0 -37,18"
       id="path86"
       inkscape:connector-curvature="0" />
  </g>
  <g
     style="fill:#000000;fill-opacity:0;stroke:#000000;stroke-width:59.05509949;stroke-linecap:round;stroke-linejoin:round;stroke-opacity:1"
     id="g88"
     transform="translate(15792.712,-9036.7569)">
    <path
       d="m 27145,26515 0,-708"
       id="path90"
       inkscape:connector-curvature="0" />
    <path
       d="m 26397,27263 748,-748"
       id="path92"
       inkscape:connector-curvature="0" />
    <path
       d="m 27145,17854 0,7953"
       id="path94"
       inkscape:connector-curvature="0" />
    <path
       d="m 26397,17106 748,748"
       id="path96"
       inkscape:connector-curvature="0" />
    <path
       d="m 17224,26515 0,-8661"
       id="path98"
       inkscape:connector-curvature="0" />
    <path
       d="m 17972,27263 -748,-748"
       id="path100"
       inkscape:connector-curvature="0" />
    <path
       d="m 17972,17106 -748,748"
       id="path102"
       inkscape:connector-curvature="0" />
    <path
       d="m 18267,27559 -295,-296"
       id="path104"
       inkscape:connector-curvature="0" />
    <path
       d="m 22185,27559 -3918,0"
       id="path106"
       inkscape:connector-curvature="0" />
    <path
       d="m 26102,27559 295,-296"
       id="path108"
       inkscape:connector-curvature="0" />
    <path
       d="m 22185,27559 3917,0"
       id="path110"
       inkscape:connector-curvature="0" />
    <path
       d="m 18267,16811 -295,295"
       id="path112"
       inkscape:connector-curvature="0" />
    <path
       d="m 26102,16811 295,295"
       id="path114"
       inkscape:connector-curvature="0" />
    <path
       d="m 23267,16811 2835,0"
       id="path116"
       inkscape:connector-curvature="0" />
    <path
       d="m 23267,16811 -5000,0"
       id="path118"
       inkscape:connector-curvature="0" />
    <path
       d="m 25760,25095 -187,187"
       id="path120"
       inkscape:connector-curvature="0" />
    <path
       d="m 25760,25095 187,187"
       id="path122"
       inkscape:connector-curvature="0" />
    <path
       d="m 25760,25095 187,-187"
       id="path124"
       inkscape:connector-curvature="0" />
    <path
       d="m 25760,25095 -187,-187"
       id="path126"
       inkscape:connector-curvature="0" />
    <circle
       cx="25760.199"
       cy="25095.699"
       r="275.76599"
       id="circle128" />
    <path
       d="m 26035,25095 433,0"
       id="path130"
       inkscape:connector-curvature="0" />
    <path
       d="m 26468,25095 -157,-138"
       id="path132"
       inkscape:connector-curvature="0" />
    <path
       d="m 26468,25095 -157,138"
       id="path134"
       inkscape:connector-curvature="0" />
  </g>
  <g
     style="fill:#000000;fill-opacity:0;stroke:#000000;stroke-width:39.37009811;stroke-linecap:round;stroke-linejoin:round;stroke-opacity:1"
     id="g136"
     transform="translate(25757.161,75003.031)" />
  <g
     style="fill:#000000;fill-opacity:1;stroke:#000000;stroke-width:39.37009811;stroke-linecap:round;stroke-linejoin:round;stroke-opacity:1"
     id="g138"
     transform="translate(15792.712,-9036.7569)">
    <polyline
       style="fill-rule:evenodd"
       points="19737,22489 19382,22489 19382,22252 19737,22252 19737,22489 "
       id="polyline140" />
    <polyline
       style="fill-rule:evenodd"
       points="19737,22114 19382,22114 19382,21877 19737,21877 19737,22114 "
       id="polyline142" />
    <polyline
       style="fill-rule:evenodd"
       points="19737,21739 19382,21739 19382,21502 19737,21502 19737,21739 "
       id="polyline144" />
    <polyline
       style="fill-rule:evenodd"
       points="18737,21739 18382,21739 18382,21502 18737,21502 18737,21739 "
       id="polyline146" />
    <polyline
       style="fill-rule:evenodd"
       points="18737,22114 18382,22114 18382,21877 18737,21877 18737,22114 "
       id="polyline148" />
    <polyline
       style="fill-rule:evenodd"
       points="18737,22489 18382,22489 18382,22252 18737,22252 18737,22489 "
       id="polyline150" />
    <polyline
       style="fill-rule:evenodd"
       points="18670,25033 18315,25033 18315,24757 18670,24757 18670,25033 "
       id="polyline152" />
    <polyline
       style="fill-rule:evenodd"
       points="17804,24658 17449,24658 17449,24382 17804,24382 17804,24658 "
       id="polyline154" />
    <polyline
       style="fill-rule:evenodd"
       points="17804,25408 17449,25408 17449,25132 17804,25132 17804,25408 "
       id="polyline156" />
    <polyline
       style="fill-rule:evenodd"
       points="22924,22750 23595,22750 23595,23341 22924,23341 22924,22750 "
       id="polyline158" />
    <polyline
       style="fill-rule:evenodd"
       points="22924,21650 23595,21650 23595,22241 22924,22241 22924,21650 "
       id="polyline160" />
    <polyline
       style="fill-rule:evenodd"
       points="23014,24931 23014,24260 23605,24260 23605,24931 23014,24931 "
       id="polyline162" />
    <polyline
       style="fill-rule:evenodd"
       points="21914,24931 21914,24260 22505,24260 22505,24931 21914,24931 "
       id="polyline164" />
    <polyline
       style="fill-rule:evenodd"
       points="21137,21857 20782,21857 20782,21542 21137,21542 21137,21857 "
       id="polyline166" />
    <polyline
       style="fill-rule:evenodd"
       points="21137,22449 20782,22449 20782,22134 21137,22134 21137,22449 "
       id="polyline168" />
    <polyline
       style="fill-rule:evenodd"
       points="24879,20415 25440,20415 25440,20976 24879,20976 24879,20415 "
       id="polyline170" />
    <circle
       cx="25160.199"
       cy="21695.699"
       r="280.315"
       id="circle172" />
    <circle
       cx="25160.199"
       cy="22695.699"
       r="280.315"
       id="circle174" />
    <circle
       cx="25160.199"
       cy="23695.699"
       r="280.315"
       id="circle176" />
    <circle
       cx="18641.699"
       cy="17854.301"
       r="275.591"
       id="circle178" />
    <circle
       cx="24940.9"
       cy="17854.301"
       r="275.591"
       id="circle180" />
    <polyline
       style="fill-rule:evenodd"
       points="26003,17578 26003,18129 25452,18129 25452,17578 26003,17578 "
       id="polyline182" />
    <circle
       cx="20216.5"
       cy="17854.301"
       r="275.591"
       id="circle184" />
    <circle
       cx="19429.1"
       cy="17854.301"
       r="275.591"
       id="circle186" />
    <circle
       cx="24153.5"
       cy="17854.301"
       r="275.591"
       id="circle188" />
    <circle
       cx="23366.1"
       cy="17854.301"
       r="275.591"
       id="circle190" />
    <circle
       cx="21003.9"
       cy="17854.301"
       r="275.591"
       id="circle192" />
    <circle
       cx="21791.301"
       cy="17854.301"
       r="275.591"
       id="circle194" />
    <circle
       cx="22578.699"
       cy="17854.301"
       r="275.591"
       id="circle196" />
    <circle
       cx="18641.699"
       cy="26515.699"
       r="275.591"
       id="circle198" />
    <circle
       cx="24940.9"
       cy="26515.699"
       r="275.591"
       id="circle200" />
    <polyline
       style="fill-rule:evenodd"
       points="26003,26240 26003,26791 25452,26791 25452,26240 26003,26240 "
       id="polyline202" />
    <circle
       cx="20216.5"
       cy="26515.699"
       r="275.591"
       id="circle204" />
    <circle
       cx="19429.1"
       cy="26515.699"
       r="275.591"
       id="circle206" />
    <circle
       cx="24153.5"
       cy="26515.699"
       r="275.591"
       id="circle208" />
    <circle
       cx="23366.1"
       cy="26515.699"
       r="275.591"
       id="circle210" />
    <circle
       cx="21003.9"
       cy="26515.699"
       r="275.591"
       id="circle212" />
    <circle
       cx="21791.301"
       cy="26515.699"
       r="275.591"
       id="circle214" />
    <circle
       cx="22578.699"
       cy="26515.699"
       r="275.591"
       id="circle216" />
    <circle
       cx="23260.199"
       cy="20595.699"
       r="324.80301"
       id="circle218" />
    <circle
       cx="25160.199"
       cy="19695.699"
       r="324.80301"
       id="circle220" />
    <circle
       cx="18360.199"
       cy="23495.699"
       r="324.80301"
       id="circle222" />
    <circle
       cx="20260.199"
       cy="23495.699"
       r="324.80301"
       id="circle224" />
  </g>
  <g
     style="fill:#000000;fill-opacity:1;stroke:#000000;stroke-width:200;stroke-linecap:round;stroke-linejoin:round;stroke-opacity:1"
     id="g226"
     transform="translate(15792.712,-9036.7569)">
    <path
       d="m 25160,21695 500,0"
       id="path228"
       inkscape:connector-curvature="0" />
    <path
       d="m 21791,18726 0,-872"
       id="path230"
       inkscape:connector-curvature="0" />
    <path
       d="m 21960,18895 -169,-169"
       id="path232"
       inkscape:connector-curvature="0" />
    <path
       d="m 25760,18895 -3800,0"
       id="path234"
       inkscape:connector-curvature="0" />
    <path
       d="m 25960,19095 -200,-200"
       id="path236"
       inkscape:connector-curvature="0" />
    <path
       d="m 25960,21395 0,-2300"
       id="path238"
       inkscape:connector-curvature="0" />
    <path
       d="m 25660,21695 300,-300"
       id="path240"
       inkscape:connector-curvature="0" />
    <path
       d="m 25160,22695 -300,0"
       id="path242"
       inkscape:connector-curvature="0" />
    <path
       d="m 21003,19239 0,-1385"
       id="path244"
       inkscape:connector-curvature="0" />
    <path
       d="m 21560,19795 -557,-556"
       id="path246"
       inkscape:connector-curvature="0" />
    <path
       d="m 23660,19795 -2100,0"
       id="path248"
       inkscape:connector-curvature="0" />
    <path
       d="m 24260,20395 -600,-600"
       id="path250"
       inkscape:connector-curvature="0" />
    <path
       d="m 24260,22095 0,-1700"
       id="path252"
       inkscape:connector-curvature="0" />
    <path
       d="m 24860,22695 -600,-600"
       id="path254"
       inkscape:connector-curvature="0" />
    <path
       d="m 19429,17854 0,1972"
       id="path256"
       inkscape:connector-curvature="0" />
    <path
       d="m 18560,20695 0,925"
       id="path258"
       inkscape:connector-curvature="0" />
    <path
       d="m 19429,19826 -869,869"
       id="path260"
       inkscape:connector-curvature="0" />
    <path
       d="m 17627,25270 0,1192"
       id="path262"
       inkscape:connector-curvature="0" />
    <path
       d="m 19536,27195 680,-680"
       id="path264"
       inkscape:connector-curvature="0" />
    <path
       d="m 18360,27195 1176,0"
       id="path266"
       inkscape:connector-curvature="0" />
    <path
       d="m 17627,26462 733,733"
       id="path268"
       inkscape:connector-curvature="0" />
    <path
       d="m 22210,24595 -1812,0"
       id="path270"
       inkscape:connector-curvature="0" />
    <path
       d="m 20398,24595 -969,969"
       id="path272"
       inkscape:connector-curvature="0" />
    <path
       d="m 19560,21995 -300,0"
       id="path274"
       inkscape:connector-curvature="0" />
    <path
       d="m 19429,25564 0,951"
       id="path276"
       inkscape:connector-curvature="0" />
    <path
       d="m 19060,25195 369,369"
       id="path278"
       inkscape:connector-curvature="0" />
    <path
       d="m 19060,22195 0,3000"
       id="path280"
       inkscape:connector-curvature="0" />
    <path
       d="m 19260,21995 -200,200"
       id="path282"
       inkscape:connector-curvature="0" />
    <path
       d="m 18493,24895 0,-267"
       id="path284"
       inkscape:connector-curvature="0" />
    <path
       d="m 17660,21835 0,160"
       id="path286"
       inkscape:connector-curvature="0" />
    <path
       d="m 17660,23795 0,-1960"
       id="path288"
       inkscape:connector-curvature="0" />
    <path
       d="m 18493,24628 -833,-833"
       id="path290"
       inkscape:connector-curvature="0" />
    <path
       d="m 18641,17854 0,-440"
       id="path292"
       inkscape:connector-curvature="0" />
    <path
       d="m 26060,23695 -900,0"
       id="path294"
       inkscape:connector-curvature="0" />
    <path
       d="m 26560,23195 -500,500"
       id="path296"
       inkscape:connector-curvature="0" />
    <path
       d="m 26560,17695 0,5500"
       id="path298"
       inkscape:connector-curvature="0" />
    <path
       d="m 26060,17195 500,500"
       id="path300"
       inkscape:connector-curvature="0" />
    <path
       d="m 18860,17195 7200,0"
       id="path302"
       inkscape:connector-curvature="0" />
    <path
       d="m 18641,17414 219,-219"
       id="path304"
       inkscape:connector-curvature="0" />
    <path
       d="m 17660,18895 0,3100"
       id="path306"
       inkscape:connector-curvature="0" />
    <path
       d="m 18060,21995 500,0"
       id="path308"
       inkscape:connector-curvature="0" />
    <path
       d="m 17660,21995 400,0"
       id="path310"
       inkscape:connector-curvature="0" />
    <path
       d="m 23260,23045 0,1500"
       id="path312"
       inkscape:connector-curvature="0" />
    <path
       d="m 23260,24545 850,-850"
       id="path314"
       inkscape:connector-curvature="0" />
    <path
       d="m 24110,23695 1050,0"
       id="path316"
       inkscape:connector-curvature="0" />
    <path
       d="m 17660,18895 981,-1041"
       id="path318"
       inkscape:connector-curvature="0" />
    <path
       d="m 19560,22370 1321,0"
       id="path320"
       inkscape:connector-curvature="0" />
    <path
       d="m 20881,22370 79,-79"
       id="path322"
       inkscape:connector-curvature="0" />
    <path
       d="m 25160,20695 0,-1000"
       id="path324"
       inkscape:connector-curvature="0" />
    <path
       d="m 23260,20595 0,1350"
       id="path326"
       inkscape:connector-curvature="0" />
    <path
       d="m 20260,23495 600,0"
       id="path328"
       inkscape:connector-curvature="0" />
    <path
       d="m 18460,22995 -100,500"
       id="path330"
       inkscape:connector-curvature="0" />
    <path
       d="m 18485,22370 -25,625"
       id="path332"
       inkscape:connector-curvature="0" />
    <path
       d="m 18560,22370 -75,0"
       id="path334"
       inkscape:connector-curvature="0" />
    <path
       d="m 22410,21945 850,0"
       id="path336"
       inkscape:connector-curvature="0" />
    <path
       d="m 20860,23495 1550,-1550"
       id="path338"
       inkscape:connector-curvature="0" />
    <path
       d="m 19560,21620 1321,0"
       id="path340"
       inkscape:connector-curvature="0" />
    <path
       d="m 20881,21620 79,79"
       id="path342"
       inkscape:connector-curvature="0" />
  </g>
  <g
     style="fill:#ffffff;fill-opacity:1;stroke:#ffffff;stroke-width:39.37009811;stroke-linecap:round;stroke-linejoin:round;stroke-opacity:1"
     id="g344"
     transform="translate(15792.712,-9036.7569)">
    <circle
       cx="23260.199"
       cy="20595.699"
       r="137.795"
       id="circle346" />
    <circle
       cx="25160.199"
       cy="19695.699"
       r="137.795"
       id="circle348" />
    <circle
       cx="18360.199"
       cy="23495.699"
       r="137.795"
       id="circle350" />
    <circle
       cx="20260.199"
       cy="23495.699"
       r="137.795"
       id="circle352" />
    <circle
       cx="25160.199"
       cy="20695.699"
       r="137.795"
       id="circle354" />
    <circle
       cx="25160.199"
       cy="21695.699"
       r="137.795"
       id="circle356" />
    <circle
       cx="25160.199"
       cy="22695.699"
       r="137.795"
       id="circle358" />
    <circle
       cx="25160.199"
       cy="23695.699"
       r="137.795"
       id="circle360" />
    <circle
       cx="18641.699"
       cy="17854.301"
       r="137.795"
       id="circle362" />
    <circle
       cx="24940.9"
       cy="17854.301"
       r="137.795"
       id="circle364" />
    <circle
       cx="25728.301"
       cy="17854.301"
       r="137.795"
       id="circle366" />
    <circle
       cx="20216.5"
       cy="17854.301"
       r="137.795"
       id="circle368" />
    <circle
       cx="19429.1"
       cy="17854.301"
       r="137.795"
       id="circle370" />
    <circle
       cx="24153.5"
       cy="17854.301"
       r="137.795"
       id="circle372" />
    <circle
       cx="23366.1"
       cy="17854.301"
       r="137.795"
       id="circle374" />
    <circle
       cx="21003.9"
       cy="17854.301"
       r="137.795"
       id="circle376" />
    <circle
       cx="21791.301"
       cy="17854.301"
       r="137.795"
       id="circle378" />
    <circle
       cx="22578.699"
       cy="17854.301"
       r="137.795"
       id="circle380" />
    <circle
       cx="18641.699"
       cy="26515.699"
       r="137.795"
       id="circle382" />
    <circle
       cx="24940.9"
       cy="26515.699"
       r="137.795"
       id="circle384" />
    <circle
       cx="25728.301"
       cy="26515.699"
       r="137.795"
       id="circle386" />
    <circle
       cx="20216.5"
       cy="26515.699"
       r="137.795"
       id="circle388" />
    <circle
       cx="19429.1"
       cy="26515.699"
       r="137.795"
       id="circle390" />
    <circle
       cx="24153.5"
       cy="26515.699"
       r="137.795"
       id="circle392" />
    <circle
       cx="23366.1"
       cy="26515.699"
       r="137.795"
       id="circle394" />
    <circle
       cx="21003.9"
       cy="26515.699"
       r="137.795"
       id="circle396" />
    <circle
       cx="21791.301"
       cy="26515.699"
       r="137.795"
       id="circle398" />
    <circle
       cx="22578.699"
       cy="26515.699"
       r="137.795"
       id="circle400" />
  </g>
</svg>
