<?xml version="1.0" standalone="no"?>
 <!DOCTYPE svg PUBLIC "-//W3C//DTD SVG 1.1//EN" 
 "http://www.w3.org/Graphics/SVG/1.1/DTD/svg11.dtd"> 
<svg xmlns="http://www.w3.org/2000/svg" version="1.1" 
    width="11.27cm" height="11.27cm" viewBox="0 0 44370 44370 ">
<title>SVG Picture created as cf2-hcsr04-B_Cu.svg date 2015/02/10 14:13:55 </title>
  <desc>Picture generated by PCBNEW </desc>
<g style="fill:#000000; fill-opacity:1;stroke:#000000; stroke-opacity:1;
stroke-linecap:round; stroke-linejoin:round; "
 transform="translate(0 0) scale(1 1)">
</g>
<g style="fill:#000000; fill-opacity:0.0; 
stroke:#000000; stroke-width:98.4252; stroke-opacity:1; 
stroke-linecap:round; stroke-linejoin:round;">
<path d="M24731 25636
L24769 25655
L24844 25655
L24881 25636
L24900 25617
L24919 25580
L24919 25467
L24900 25430
L24881 25411
L24844 25392
L24769 25392
L24731 25411
" />
<path d="M24506 25655
L24544 25636
L24563 25617
L24581 25580
L24581 25467
L24563 25430
L24544 25411
L24506 25392
L24450 25392
L24413 25411
L24394 25430
L24375 25467
L24375 25580
L24394 25617
L24413 25636
L24450 25655
L24506 25655
" />
<path d="M24206 25655
L24206 25392
" />
<path d="M24206 25467
L24188 25430
L24169 25411
L24131 25392
L24094 25392
" />
<path d="M23813 25636
L23850 25655
L23925 25655
L23963 25636
L23981 25598
L23981 25448
L23963 25411
L23925 25392
L23850 25392
L23813 25411
L23794 25448
L23794 25486
L23981 25523
" />
<path d="M23457 25655
L23457 25261
" />
<path d="M23457 25636
L23494 25655
L23569 25655
L23606 25636
L23625 25617
L23644 25580
L23644 25467
L23625 25430
L23606 25411
L23569 25392
L23494 25392
L23457 25411
" />
<path d="M23100 25392
L23100 25655
" />
<path d="M23269 25392
L23269 25598
L23250 25636
L23213 25655
L23157 25655
L23119 25636
L23100 25617
" />
<path d="M22913 25655
L22913 25392
" />
<path d="M22913 25430
L22894 25411
L22857 25392
L22800 25392
L22763 25411
L22744 25448
L22744 25655
" />
<path d="M22744 25448
L22725 25411
L22688 25392
L22632 25392
L22594 25411
L22575 25448
L22575 25655
" />
<path d="M22388 25392
L22388 25786
" />
<path d="M22388 25411
L22350 25392
L22275 25392
L22238 25411
L22219 25430
L22200 25467
L22200 25580
L22219 25617
L22238 25636
L22275 25655
L22350 25655
L22388 25636
" />
<path d="M21750 25298
L21732 25280
L21694 25261
L21600 25261
L21563 25280
L21544 25298
L21526 25336
L21526 25373
L21544 25430
L21769 25655
L21526 25655
" />
<path d="M21282 25261
L21244 25261
L21207 25280
L21188 25298
L21169 25336
L21151 25411
L21151 25505
L21169 25580
L21188 25617
L21207 25636
L21244 25655
L21282 25655
L21319 25636
L21338 25617
L21357 25580
L21376 25505
L21376 25411
L21357 25336
L21338 25298
L21319 25280
L21282 25261
" />
<path d="M20776 25655
L21001 25655
" />
<path d="M20888 25655
L20888 25261
L20926 25317
L20963 25355
L21001 25373
" />
<path d="M20419 25261
L20607 25261
L20626 25448
L20607 25430
L20569 25411
L20476 25411
L20438 25430
L20419 25448
L20401 25486
L20401 25580
L20419 25617
L20438 25636
L20476 25655
L20569 25655
L20607 25636
L20626 25617
" />
<path d="M21094 20417
L21113 20436
L21169 20455
L21207 20455
L21263 20436
L21300 20398
L21319 20361
L21338 20286
L21338 20230
L21319 20155
L21300 20117
L21263 20080
L21207 20061
L21169 20061
L21113 20080
L21094 20098
" />
<path d="M20794 20248
L20925 20248
" />
<path d="M20925 20455
L20925 20061
L20738 20061
" />
<path d="M20607 20098
L20588 20080
L20550 20061
L20457 20061
L20419 20080
L20400 20098
L20382 20136
L20382 20173
L20400 20230
L20625 20455
L20382 20455
" />
<path d="M22266 20710
L22266 21029
L22247 21067
L22228 21085
L22191 21104
L22116 21104
L22078 21085
L22060 21067
L22041 21029
L22041 20710
" />
<path d="M21797 21104
L21835 21085
L21853 21048
L21853 20710
" />
<path d="M21703 20842
L21553 20842
" />
<path d="M21647 20710
L21647 21048
L21628 21085
L21591 21104
L21553 21104
" />
<path d="M21422 21104
L21422 20842
" />
<path d="M21422 20917
L21403 20879
L21385 20860
L21347 20842
L21310 20842
" />
<path d="M21010 21104
L21010 20898
L21028 20860
L21066 20842
L21141 20842
L21178 20860
" />
<path d="M21010 21085
L21047 21104
L21141 21104
L21178 21085
L21197 21048
L21197 21010
L21178 20973
L21141 20954
L21047 20954
L21010 20935
" />
<path d="M20841 21085
L20803 21104
L20729 21104
L20691 21085
L20672 21048
L20672 21029
L20691 20992
L20729 20973
L20785 20973
L20822 20954
L20841 20917
L20841 20898
L20822 20860
L20785 20842
L20729 20842
L20691 20860
" />
<path d="M20447 21104
L20485 21085
L20504 21067
L20522 21029
L20522 20917
L20504 20879
L20485 20860
L20447 20842
L20391 20842
L20354 20860
L20335 20879
L20316 20917
L20316 21029
L20335 21067
L20354 21085
L20391 21104
L20447 21104
" />
<path d="M20147 20842
L20147 21104
" />
<path d="M20147 20879
L20129 20860
L20091 20842
L20035 20842
L19997 20860
L19979 20898
L19979 21104
" />
<path d="M19791 21104
L19791 20842
" />
<path d="M19791 20710
L19810 20729
L19791 20748
L19772 20729
L19791 20710
L19791 20748
" />
<path d="M19435 21085
L19472 21104
L19547 21104
L19585 21085
L19604 21067
L19622 21029
L19622 20917
L19604 20879
L19585 20860
L19547 20842
L19472 20842
L19435 20860
" />
</g>
<g style="fill:#000000; fill-opacity:0.0; 
stroke:#000000; stroke-width:59.0551; stroke-opacity:1; 
stroke-linecap:round; stroke-linejoin:round;">
<path d="M27145 26515
L27145 25807
" />
<path d="M26397 27263
L27145 26515
" />
<path d="M27145 17854
L27145 25807
" />
<path d="M26397 17106
L27145 17854
" />
<path d="M17224 26515
L17224 17854
" />
<path d="M17972 27263
L17224 26515
" />
<path d="M17972 17106
L17224 17854
" />
<path d="M18267 27559
L17972 27263
" />
<path d="M22185 27559
L18267 27559
" />
<path d="M26102 27559
L26397 27263
" />
<path d="M22185 27559
L26102 27559
" />
<path d="M18267 16811
L17972 17106
" />
<path d="M26102 16811
L26397 17106
" />
<path d="M23267 16811
L26102 16811
" />
<path d="M23267 16811
L18267 16811
" />
<path d="M25760 25095
L25573 25282
" />
<path d="M25760 25095
L25947 25282
" />
<path d="M25760 25095
L25947 24908
" />
<path d="M25760 25095
L25573 24908
" />
<circle cx="25760.2" cy="25095.7" r="275.766" /> 
<path d="M26035 25095
L26468 25095
" />
<path d="M26468 25095
L26311 24957
" />
<path d="M26468 25095
L26311 25233
" />
</g>
<g style="fill:#000000; fill-opacity:0.0; 
stroke:#000000; stroke-width:39.3701; stroke-opacity:1; 
stroke-linecap:round; stroke-linejoin:round;">
</g>
<g style="fill:#000000; fill-opacity:1.0; 
stroke:#000000; stroke-width:39.3701; stroke-opacity:1; 
stroke-linecap:round; stroke-linejoin:round;">
<circle cx="18641.7" cy="26515.7" r="275.591" /> 
<circle cx="24940.9" cy="26515.7" r="275.591" /> 
<polyline style="fill-rule:evenodd;"
points="26003,26240
26003,26791
25452,26791
25452,26240
26003,26240
" /> 
<circle cx="20216.5" cy="26515.7" r="275.591" /> 
<circle cx="19429.1" cy="26515.7" r="275.591" /> 
<circle cx="24153.5" cy="26515.7" r="275.591" /> 
<circle cx="23366.1" cy="26515.7" r="275.591" /> 
<circle cx="21003.9" cy="26515.7" r="275.591" /> 
<circle cx="21791.3" cy="26515.7" r="275.591" /> 
<circle cx="22578.7" cy="26515.7" r="275.591" /> 
<polyline style="fill-rule:evenodd;"
points="19737,22489
19382,22489
19382,22252
19737,22252
19737,22489
" /> 
<polyline style="fill-rule:evenodd;"
points="19737,22114
19382,22114
19382,21877
19737,21877
19737,22114
" /> 
<polyline style="fill-rule:evenodd;"
points="19737,21739
19382,21739
19382,21502
19737,21502
19737,21739
" /> 
<polyline style="fill-rule:evenodd;"
points="18737,21739
18382,21739
18382,21502
18737,21502
18737,21739
" /> 
<polyline style="fill-rule:evenodd;"
points="18737,22114
18382,22114
18382,21877
18737,21877
18737,22114
" /> 
<polyline style="fill-rule:evenodd;"
points="18737,22489
18382,22489
18382,22252
18737,22252
18737,22489
" /> 
<polyline style="fill-rule:evenodd;"
points="18670,25033
18315,25033
18315,24757
18670,24757
18670,25033
" /> 
<polyline style="fill-rule:evenodd;"
points="17804,24658
17449,24658
17449,24382
17804,24382
17804,24658
" /> 
<polyline style="fill-rule:evenodd;"
points="17804,25408
17449,25408
17449,25132
17804,25132
17804,25408
" /> 
<polyline style="fill-rule:evenodd;"
points="22924,22750
23595,22750
23595,23341
22924,23341
22924,22750
" /> 
<polyline style="fill-rule:evenodd;"
points="22924,21650
23595,21650
23595,22241
22924,22241
22924,21650
" /> 
<polyline style="fill-rule:evenodd;"
points="23014,24931
23014,24260
23605,24260
23605,24931
23014,24931
" /> 
<polyline style="fill-rule:evenodd;"
points="21914,24931
21914,24260
22505,24260
22505,24931
21914,24931
" /> 
<polyline style="fill-rule:evenodd;"
points="21137,21857
20782,21857
20782,21542
21137,21542
21137,21857
" /> 
<polyline style="fill-rule:evenodd;"
points="21137,22449
20782,22449
20782,22134
21137,22134
21137,22449
" /> 
<circle cx="18641.7" cy="17854.3" r="275.591" /> 
<circle cx="24940.9" cy="17854.3" r="275.591" /> 
<polyline style="fill-rule:evenodd;"
points="26003,17578
26003,18129
25452,18129
25452,17578
26003,17578
" /> 
<circle cx="20216.5" cy="17854.3" r="275.591" /> 
<circle cx="19429.1" cy="17854.3" r="275.591" /> 
<circle cx="24153.5" cy="17854.3" r="275.591" /> 
<circle cx="23366.1" cy="17854.3" r="275.591" /> 
<circle cx="21003.9" cy="17854.3" r="275.591" /> 
<circle cx="21791.3" cy="17854.3" r="275.591" /> 
<circle cx="22578.7" cy="17854.3" r="275.591" /> 
<polyline style="fill-rule:evenodd;"
points="24879,20415
25440,20415
25440,20976
24879,20976
24879,20415
" /> 
<circle cx="25160.2" cy="21695.7" r="280.315" /> 
<circle cx="25160.2" cy="22695.7" r="280.315" /> 
<circle cx="25160.2" cy="23695.7" r="280.315" /> 
<circle cx="23260.2" cy="20595.7" r="324.803" /> 
<circle cx="25160.2" cy="19695.7" r="324.803" /> 
<circle cx="18160.2" cy="23495.7" r="324.803" /> 
<circle cx="20260.2" cy="23495.7" r="324.803" /> 
</g>
<g style="fill:#000000; fill-opacity:1.0; 
stroke:#000000; stroke-width:200; stroke-opacity:1; 
stroke-linecap:round; stroke-linejoin:round;">
<path d="M25160 21695
L25660 21695
" />
<path d="M21791 18726
L21791 17854
" />
<path d="M22260 19195
L21791 18726
" />
<path d="M25760 19195
L22260 19195
" />
<path d="M25960 19395
L25760 19195
" />
<path d="M25960 21395
L25960 19395
" />
<path d="M25660 21695
L25960 21395
" />
<path d="M25160 22695
L24860 22695
" />
<path d="M21003 19239
L21003 17854
" />
<path d="M21560 19795
L21003 19239
" />
<path d="M23660 19795
L21560 19795
" />
<path d="M24260 20395
L23660 19795
" />
<path d="M24260 22095
L24260 20395
" />
<path d="M24860 22695
L24260 22095
" />
<path d="M19429 17854
L19429 19826
" />
<path d="M18560 20695
L18560 21620
" />
<path d="M19429 19826
L18560 20695
" />
<path d="M17627 25270
L17627 26462
" />
<path d="M19536 27195
L20216 26515
" />
<path d="M18360 27195
L19536 27195
" />
<path d="M17627 26462
L18360 27195
" />
<path d="M22210 24595
L20398 24595
" />
<path d="M20398 24595
L19429 25564
" />
<path d="M19560 21995
L19260 21995
" />
<path d="M19429 25564
L19429 26515
" />
<path d="M19060 25195
L19429 25564
" />
<path d="M19060 22195
L19060 25195
" />
<path d="M19260 21995
L19060 22195
" />
<path d="M18493 24895
L18493 24628
" />
<path d="M17660 21835
L17660 21995
" />
<path d="M17660 23795
L17660 21835
" />
<path d="M18493 24628
L17660 23795
" />
<path d="M18641 17854
L18641 17414
" />
<path d="M26060 23695
L25160 23695
" />
<path d="M26560 23195
L26060 23695
" />
<path d="M26560 17695
L26560 23195
" />
<path d="M26060 17195
L26560 17695
" />
<path d="M18860 17195
L26060 17195
" />
<path d="M18641 17414
L18860 17195
" />
<path d="M17660 18895
L17660 21995
" />
<path d="M18060 21995
L18560 21995
" />
<path d="M17660 21995
L18060 21995
" />
<path d="M23260 23045
L23260 24545
" />
<path d="M23260 24545
L24110 23695
" />
<path d="M24110 23695
L25160 23695
" />
<path d="M17660 18895
L18641 17854
" />
<path d="M19560 22370
L20881 22370
" />
<path d="M20881 22370
L20960 22291
" />
<path d="M25160 20695
L25160 19695
" />
<path d="M23260 20595
L23260 21945
" />
<path d="M20260 23495
L20860 23495
" />
<path d="M18160 22695
L18160 23495
" />
<path d="M18485 22370
L18160 22695
" />
<path d="M18560 22370
L18485 22370
" />
<path d="M22410 21945
L23260 21945
" />
<path d="M20860 23495
L22410 21945
" />
<path d="M19560 21620
L20881 21620
" />
<path d="M20881 21620
L20960 21699
" />
</g>
<g style="fill:#FFFFFF; fill-opacity:1.0; 
stroke:#FFFFFF; stroke-width:39.3701; stroke-opacity:1; 
stroke-linecap:round; stroke-linejoin:round;">
<circle cx="23260.2" cy="20595.7" r="137.795" /> 
<circle cx="25160.2" cy="19695.7" r="137.795" /> 
<circle cx="18160.2" cy="23495.7" r="137.795" /> 
<circle cx="20260.2" cy="23495.7" r="137.795" /> 
<circle cx="18641.7" cy="26515.7" r="137.795" /> 
<circle cx="24940.9" cy="26515.7" r="137.795" /> 
<circle cx="25728.3" cy="26515.7" r="137.795" /> 
<circle cx="20216.5" cy="26515.7" r="137.795" /> 
<circle cx="19429.1" cy="26515.7" r="137.795" /> 
<circle cx="24153.5" cy="26515.7" r="137.795" /> 
<circle cx="23366.1" cy="26515.7" r="137.795" /> 
<circle cx="21003.9" cy="26515.7" r="137.795" /> 
<circle cx="21791.3" cy="26515.7" r="137.795" /> 
<circle cx="22578.7" cy="26515.7" r="137.795" /> 
<circle cx="18641.7" cy="17854.3" r="137.795" /> 
<circle cx="24940.9" cy="17854.3" r="137.795" /> 
<circle cx="25728.3" cy="17854.3" r="137.795" /> 
<circle cx="20216.5" cy="17854.3" r="137.795" /> 
<circle cx="19429.1" cy="17854.3" r="137.795" /> 
<circle cx="24153.5" cy="17854.3" r="137.795" /> 
<circle cx="23366.1" cy="17854.3" r="137.795" /> 
<circle cx="21003.9" cy="17854.3" r="137.795" /> 
<circle cx="21791.3" cy="17854.3" r="137.795" /> 
<circle cx="22578.7" cy="17854.3" r="137.795" /> 
<circle cx="25160.2" cy="20695.7" r="137.795" /> 
<circle cx="25160.2" cy="21695.7" r="137.795" /> 
<circle cx="25160.2" cy="22695.7" r="137.795" /> 
<circle cx="25160.2" cy="23695.7" r="137.795" /> 
</g> 
</svg>
