<?xml version="1.0" standalone="no"?>
 <!DOCTYPE svg PUBLIC "-//W3C//DTD SVG 1.1//EN" 
 "http://www.w3.org/Graphics/SVG/1.1/DTD/svg11.dtd"> 
<svg xmlns="http://www.w3.org/2000/svg" version="1.1" 
    width="11.27cm" height="11.27cm" viewBox="0 0 44370 44370 ">
<title>SVG Picture created as cf2-hcsr04-B_Cu.svg date 2015/02/02 23:52:47 </title>
  <desc>Picture generated by PCBNEW </desc>
<g style="fill:#000000; fill-opacity:1;stroke:#000000; stroke-opacity:1;
stroke-linecap:round; stroke-linejoin:round; "
 transform="translate(0 0) scale(1 1)">
</g>
<g style="fill:#000000; fill-opacity:0.0; 
stroke:#000000; stroke-width:59.0551; stroke-opacity:1; 
stroke-linecap:round; stroke-linejoin:round;">
<path d="M27145 26515
L27145 25807
" />
<path d="M26397 27263
L27145 26515
" />
<path d="M27145 17854
L27145 25807
" />
<path d="M26397 17106
L27145 17854
" />
<path d="M17224 26515
L17224 17854
" />
<path d="M17972 27263
L17224 26515
" />
<path d="M17972 17106
L17224 17854
" />
<path d="M18267 27559
L17972 27263
" />
<path d="M22185 27559
L18267 27559
" />
<path d="M26102 27559
L26397 27263
" />
<path d="M22185 27559
L26102 27559
" />
<path d="M18267 16811
L17972 17106
" />
<path d="M26102 16811
L26397 17106
" />
<path d="M23267 16811
L26102 16811
" />
<path d="M23267 16811
L18267 16811
" />
</g>
<g style="fill:#000000; fill-opacity:0.0; 
stroke:#000000; stroke-width:39.3701; stroke-opacity:1; 
stroke-linecap:round; stroke-linejoin:round;">
</g>
<g style="fill:#000000; fill-opacity:1.0; 
stroke:#000000; stroke-width:39.3701; stroke-opacity:1; 
stroke-linecap:round; stroke-linejoin:round;">
<circle cx="18641.7" cy="26515.7" r="275.591" /> 
<circle cx="24940.9" cy="26515.7" r="275.591" /> 
<polyline style="fill-rule:evenodd;"
points="26003,26240
26003,26791
25452,26791
25452,26240
26003,26240
" /> 
<circle cx="20216.5" cy="26515.7" r="275.591" /> 
<circle cx="19429.1" cy="26515.7" r="275.591" /> 
<circle cx="24153.5" cy="26515.7" r="275.591" /> 
<circle cx="23366.1" cy="26515.7" r="275.591" /> 
<circle cx="21003.9" cy="26515.7" r="275.591" /> 
<circle cx="21791.3" cy="26515.7" r="275.591" /> 
<circle cx="22578.7" cy="26515.7" r="275.591" /> 
<polyline style="fill-rule:evenodd;"
points="19737,22489
19382,22489
19382,22252
19737,22252
19737,22489
" /> 
<polyline style="fill-rule:evenodd;"
points="19737,22114
19382,22114
19382,21877
19737,21877
19737,22114
" /> 
<polyline style="fill-rule:evenodd;"
points="19737,21739
19382,21739
19382,21502
19737,21502
19737,21739
" /> 
<polyline style="fill-rule:evenodd;"
points="18737,21739
18382,21739
18382,21502
18737,21502
18737,21739
" /> 
<polyline style="fill-rule:evenodd;"
points="18737,22114
18382,22114
18382,21877
18737,21877
18737,22114
" /> 
<polyline style="fill-rule:evenodd;"
points="18737,22489
18382,22489
18382,22252
18737,22252
18737,22489
" /> 
<polyline style="fill-rule:evenodd;"
points="18670,25033
18315,25033
18315,24757
18670,24757
18670,25033
" /> 
<polyline style="fill-rule:evenodd;"
points="17804,24658
17449,24658
17449,24382
17804,24382
17804,24658
" /> 
<polyline style="fill-rule:evenodd;"
points="17804,25408
17449,25408
17449,25132
17804,25132
17804,25408
" /> 
<polyline style="fill-rule:evenodd;"
points="22924,22750
23595,22750
23595,23341
22924,23341
22924,22750
" /> 
<polyline style="fill-rule:evenodd;"
points="22924,21650
23595,21650
23595,22241
22924,22241
22924,21650
" /> 
<polyline style="fill-rule:evenodd;"
points="23014,24931
23014,24260
23605,24260
23605,24931
23014,24931
" /> 
<polyline style="fill-rule:evenodd;"
points="21914,24931
21914,24260
22505,24260
22505,24931
21914,24931
" /> 
<polyline style="fill-rule:evenodd;"
points="21137,21857
20782,21857
20782,21542
21137,21542
21137,21857
" /> 
<polyline style="fill-rule:evenodd;"
points="21137,22449
20782,22449
20782,22134
21137,22134
21137,22449
" /> 
<circle cx="18641.7" cy="17854.3" r="275.591" /> 
<circle cx="24940.9" cy="17854.3" r="275.591" /> 
<polyline style="fill-rule:evenodd;"
points="26003,17578
26003,18129
25452,18129
25452,17578
26003,17578
" /> 
<circle cx="20216.5" cy="17854.3" r="275.591" /> 
<circle cx="19429.1" cy="17854.3" r="275.591" /> 
<circle cx="24153.5" cy="17854.3" r="275.591" /> 
<circle cx="23366.1" cy="17854.3" r="275.591" /> 
<circle cx="21003.9" cy="17854.3" r="275.591" /> 
<circle cx="21791.3" cy="17854.3" r="275.591" /> 
<circle cx="22578.7" cy="17854.3" r="275.591" /> 
<polyline style="fill-rule:evenodd;"
points="24879,20415
25440,20415
25440,20976
24879,20976
24879,20415
" /> 
<circle cx="25160.2" cy="21695.7" r="280.315" /> 
<circle cx="25160.2" cy="22695.7" r="280.315" /> 
<circle cx="25160.2" cy="23695.7" r="280.315" /> 
<circle cx="23260.2" cy="20595.7" r="324.803" /> 
<circle cx="25160.2" cy="19695.7" r="324.803" /> 
<circle cx="18160.2" cy="23495.7" r="324.803" /> 
<circle cx="20260.2" cy="23495.7" r="324.803" /> 
</g>
<g style="fill:#000000; fill-opacity:1.0; 
stroke:#000000; stroke-width:200; stroke-opacity:1; 
stroke-linecap:round; stroke-linejoin:round;">
<path d="M25160 21695
L25660 21695
" />
<path d="M21791 18726
L21791 17854
" />
<path d="M22260 19195
L21791 18726
" />
<path d="M25760 19195
L22260 19195
" />
<path d="M25960 19395
L25760 19195
" />
<path d="M25960 21395
L25960 19395
" />
<path d="M25660 21695
L25960 21395
" />
<path d="M25160 22695
L24860 22695
" />
<path d="M21003 19239
L21003 17854
" />
<path d="M21560 19795
L21003 19239
" />
<path d="M23660 19795
L21560 19795
" />
<path d="M24260 20395
L23660 19795
" />
<path d="M24260 22095
L24260 20395
" />
<path d="M24860 22695
L24260 22095
" />
<path d="M19429 17854
L19429 19826
" />
<path d="M18560 20695
L18560 21620
" />
<path d="M19429 19826
L18560 20695
" />
<path d="M17627 25270
L17627 26462
" />
<path d="M19536 27195
L20216 26515
" />
<path d="M18360 27195
L19536 27195
" />
<path d="M17627 26462
L18360 27195
" />
<path d="M22210 24595
L20398 24595
" />
<path d="M20398 24595
L19429 25564
" />
<path d="M19560 21995
L19260 21995
" />
<path d="M19429 25564
L19429 26515
" />
<path d="M19060 25195
L19429 25564
" />
<path d="M19060 22195
L19060 25195
" />
<path d="M19260 21995
L19060 22195
" />
<path d="M18493 24895
L18493 24628
" />
<path d="M17660 21835
L17780 21715
" />
<path d="M17660 23795
L17660 21835
" />
<path d="M18493 24628
L17660 23795
" />
<path d="M18641 17854
L18641 17414
" />
<path d="M26060 23695
L25160 23695
" />
<path d="M26560 23195
L26060 23695
" />
<path d="M26560 17695
L26560 23195
" />
<path d="M26060 17195
L26560 17695
" />
<path d="M18860 17195
L26060 17195
" />
<path d="M18641 17414
L18860 17195
" />
<path d="M17780 18715
L17780 21715
" />
<path d="M18060 21995
L18560 21995
" />
<path d="M17780 21715
L18060 21995
" />
<path d="M23260 23045
L23260 24545
" />
<path d="M23260 24545
L24110 23695
" />
<path d="M24110 23695
L25160 23695
" />
<path d="M17760 18735
L17780 18715
" />
<path d="M17780 18715
L18641 17854
" />
<path d="M19560 22370
L20881 22370
" />
<path d="M20881 22370
L20960 22291
" />
<path d="M25160 20695
L25160 19695
" />
<path d="M23260 20595
L23260 21945
" />
<path d="M20260 23495
L20860 23495
" />
<path d="M18160 22695
L18160 23495
" />
<path d="M18485 22370
L18160 22695
" />
<path d="M18560 22370
L18485 22370
" />
<path d="M22410 21945
L23260 21945
" />
<path d="M20860 23495
L22410 21945
" />
<path d="M19560 21620
L20881 21620
" />
<path d="M20881 21620
L20960 21699
" />
</g>
<g style="fill:#FFFFFF; fill-opacity:1.0; 
stroke:#FFFFFF; stroke-width:39.3701; stroke-opacity:1; 
stroke-linecap:round; stroke-linejoin:round;">
<circle cx="23260.2" cy="20595.7" r="137.795" /> 
<circle cx="25160.2" cy="19695.7" r="137.795" /> 
<circle cx="18160.2" cy="23495.7" r="137.795" /> 
<circle cx="20260.2" cy="23495.7" r="137.795" /> 
<circle cx="18641.7" cy="26515.7" r="137.795" /> 
<circle cx="24940.9" cy="26515.7" r="137.795" /> 
<circle cx="25728.3" cy="26515.7" r="137.795" /> 
<circle cx="20216.5" cy="26515.7" r="137.795" /> 
<circle cx="19429.1" cy="26515.7" r="137.795" /> 
<circle cx="24153.5" cy="26515.7" r="137.795" /> 
<circle cx="23366.1" cy="26515.7" r="137.795" /> 
<circle cx="21003.9" cy="26515.7" r="137.795" /> 
<circle cx="21791.3" cy="26515.7" r="137.795" /> 
<circle cx="22578.7" cy="26515.7" r="137.795" /> 
<circle cx="18641.7" cy="17854.3" r="137.795" /> 
<circle cx="24940.9" cy="17854.3" r="137.795" /> 
<circle cx="25728.3" cy="17854.3" r="137.795" /> 
<circle cx="20216.5" cy="17854.3" r="137.795" /> 
<circle cx="19429.1" cy="17854.3" r="137.795" /> 
<circle cx="24153.5" cy="17854.3" r="137.795" /> 
<circle cx="23366.1" cy="17854.3" r="137.795" /> 
<circle cx="21003.9" cy="17854.3" r="137.795" /> 
<circle cx="21791.3" cy="17854.3" r="137.795" /> 
<circle cx="22578.7" cy="17854.3" r="137.795" /> 
<circle cx="25160.2" cy="20695.7" r="137.795" /> 
<circle cx="25160.2" cy="21695.7" r="137.795" /> 
<circle cx="25160.2" cy="22695.7" r="137.795" /> 
<circle cx="25160.2" cy="23695.7" r="137.795" /> 
</g> 
</svg>
